<svg width="21" height="20" viewBox="0 0 21 20" fill="none" xmlns="http://www.w3.org/2000/svg">
<path d="M10.625 4.80859C13.332 4.80859 15.5664 7.04297 15.5664 9.75C15.5664 12.5 13.332 14.6914 10.625 14.6914C7.875 14.6914 5.68359 12.5 5.68359 9.75C5.68359 7.04297 7.875 4.80859 10.625 4.80859ZM10.625 12.9727C12.3867 12.9727 13.8047 11.5547 13.8047 9.75C13.8047 7.98828 12.3867 6.57031 10.625 6.57031C8.82031 6.57031 7.40234 7.98828 7.40234 9.75C7.40234 11.5547 8.86328 12.9727 10.625 12.9727ZM16.8984 4.63672C16.8984 5.28125 16.3828 5.79688 15.7383 5.79688C15.0938 5.79688 14.5781 5.28125 14.5781 4.63672C14.5781 3.99219 15.0938 3.47656 15.7383 3.47656C16.3828 3.47656 16.8984 3.99219 16.8984 4.63672ZM20.1641 5.79688C20.25 7.38672 20.25 12.1562 20.1641 13.7461C20.0781 15.293 19.7344 16.625 18.6172 17.7852C17.5 18.9023 16.125 19.2461 14.5781 19.332C12.9883 19.418 8.21875 19.418 6.62891 19.332C5.08203 19.2461 3.75 18.9023 2.58984 17.7852C1.47266 16.625 1.12891 15.293 1.04297 13.7461C0.957031 12.1562 0.957031 7.38672 1.04297 5.79688C1.12891 4.25 1.47266 2.875 2.58984 1.75781C3.75 0.640625 5.08203 0.296875 6.62891 0.210938C8.21875 0.125 12.9883 0.125 14.5781 0.210938C16.125 0.296875 17.5 0.640625 18.6172 1.75781C19.7344 2.875 20.0781 4.25 20.1641 5.79688ZM18.1016 15.4219C18.6172 14.1758 18.4883 11.168 18.4883 9.75C18.4883 8.375 18.6172 5.36719 18.1016 4.07812C17.7578 3.26172 17.1133 2.57422 16.2969 2.27344C15.0078 1.75781 12 1.88672 10.625 1.88672C9.20703 1.88672 6.19922 1.75781 4.95312 2.27344C4.09375 2.61719 3.44922 3.26172 3.10547 4.07812C2.58984 5.36719 2.71875 8.375 2.71875 9.75C2.71875 11.168 2.58984 14.1758 3.10547 15.4219C3.44922 16.2812 4.09375 16.9258 4.95312 17.2695C6.19922 17.7852 9.20703 17.6562 10.625 17.6562C12 17.6562 15.0078 17.7852 16.2969 17.2695C17.1133 16.9258 17.8008 16.2812 18.1016 15.4219Z" fill="black"/>
</svg>
