<svg width="22" height="22" viewBox="0 0 22 22" fill="none" xmlns="http://www.w3.org/2000/svg">
<path d="M10.6562 0.09375C16.543 0.09375 21.3125 4.86328 21.3125 10.75C21.3125 16.6367 16.543 21.4062 10.6562 21.4062C4.76953 21.4062 0 16.6367 0 10.75C0 4.86328 4.76953 0.09375 10.6562 0.09375ZM15.8555 7.39844C16.0273 6.71094 15.5977 6.41016 15.125 6.58203L4.85547 10.5352C4.16797 10.793 4.16797 11.2227 4.72656 11.3945L7.34766 12.2109L13.4492 8.34375C13.75 8.17188 14.0078 8.30078 13.793 8.47266L8.85156 12.9414L8.67969 15.6484C8.9375 15.6484 9.06641 15.5195 9.19531 15.3906L10.4844 14.1445L13.1484 16.1211C13.6641 16.3789 14.0078 16.25 14.1367 15.6484L15.8555 7.39844Z" fill="black"/>
</svg>
