<?xml version="1.0" standalone="no"?>
<!DOCTYPE svg PUBLIC "-//W3C//DTD SVG 20010904//EN"
 "http://www.w3.org/TR/2001/REC-SVG-20010904/DTD/svg10.dtd">
<svg version="1.0" xmlns="http://www.w3.org/2000/svg"
 width="1280.000000pt" height="1070.000000pt" viewBox="0 0 1280.000000 1070.000000"
 preserveAspectRatio="xMidYMid meet">
<metadata>
Created by potrace 1.15, written by Peter Selinger 2001-2017
</metadata>
<g transform="translate(0.000000,1070.000000) scale(0.100000,-0.100000)"
fill="#000000" stroke="none">
<path d="M4080 10688 c-100 -12 -890 -98 -900 -98 -5 0 -12 9 -15 20 -7 22
-53 50 -82 50 -10 0 -79 -24 -154 -54 -74 -30 -150 -57 -169 -60 -19 -4 -244
-29 -500 -56 -256 -27 -482 -54 -503 -60 -56 -16 -70 -45 -66 -139 l4 -80
-125 -105 -125 -105 -328 -133 c-181 -73 -339 -143 -352 -155 -40 -36 -40 -63
-1 -160 l35 -88 -27 -26 c-15 -15 -184 -158 -377 -318 -192 -160 -360 -306
-372 -323 -39 -53 -31 -77 54 -180 449 -540 1913 -2281 1939 -2305 26 -25 42
-33 72 -33 40 0 14 -21 629 496 l181 153 69 -52 c137 -104 268 -180 1221 -707
l967 -536 5 -2509 c5 -2290 7 -2516 22 -2575 81 -319 236 -503 450 -535 106
-16 214 30 319 134 62 62 85 94 122 171 54 111 83 217 97 350 6 56 10 490 10
1048 l0 953 90 -3 90 -3 0 -920 c0 -958 5 -1127 40 -1260 41 -157 135 -316
235 -396 77 -61 140 -84 235 -84 75 0 93 4 150 31 155 74 263 227 329 464 l26
95 3 2537 2 2537 153 84 c83 46 496 274 917 507 796 439 911 505 1047 602 l82
58 49 -30 c35 -21 144 -138 376 -400 211 -239 336 -372 352 -376 45 -11 73 6
207 124 840 738 2170 1914 2200 1943 29 29 37 44 37 72 0 42 34 0 -377 465
-267 303 -320 368 -313 383 15 26 12 72 -5 96 -8 11 -72 58 -142 103 l-128 83
-290 329 c-411 468 -402 458 -451 458 -34 0 -48 -7 -95 -49 l-55 -49 -160 42
-161 43 -308 196 c-311 199 -338 212 -385 187 -10 -5 -41 -46 -70 -91 -33 -52
-56 -79 -65 -75 -8 3 -179 48 -382 102 -202 53 -416 109 -476 125 -59 16 -114
29 -123 29 -29 0 -71 -29 -82 -57 -7 -15 -43 -147 -81 -293 -122 -465 -445
-1688 -582 -2205 -73 -275 -134 -514 -137 -531 -3 -24 3 -39 25 -62 25 -27 48
-36 193 -73 91 -23 168 -45 173 -49 4 -3 -320 -187 -720 -408 l-728 -402 -640
0 -640 1 -749 414 c-582 322 -743 415 -725 419 13 3 116 15 228 27 113 11 215
25 227 30 13 4 31 20 40 34 19 29 21 -1 -86 985 -17 151 -67 606 -110 1010
-44 404 -91 834 -105 955 l-24 220 -31 28 c-33 30 -49 31 -180 15z"/>
<path d="M6103 8789 c-231 -30 -452 -139 -618 -306 -413 -416 -413 -1081 0
-1498 139 -140 326 -246 515 -290 101 -23 287 -31 391 -15 487 71 868 472 907
957 17 203 -16 380 -103 558 -63 130 -124 213 -229 313 -232 220 -547 323
-863 281z"/>
</g>
</svg>
