<svg width="118" height="23" viewBox="0 0 118 23" fill="none" xmlns="http://www.w3.org/2000/svg">
<path d="M101.136 9.96392C101.137 9.56792 101.053 9.1762 100.889 8.81506C100.726 8.45392 100.486 8.13177 100.187 7.87006C99.8882 7.60835 99.5362 7.4132 99.155 7.29778C98.7737 7.18235 98.372 7.14906 97.9769 7.20049H94.6819V15.4158H96.1935V12.7725H97.856C99.6395 12.7725 101.136 11.8112 101.136 9.96392ZM99.6245 9.96392C99.6245 10.8501 98.9292 11.4658 97.8257 11.4658H96.148V8.5672H97.856C98.9442 8.5672 99.6546 9.01778 99.6546 10.0691L99.6245 9.96392Z" fill="white"/>
<path d="M106.11 7.14014H104.749L101.092 15.4154H102.603L103.465 13.433H107.41L108.256 15.4154H109.767L106.11 7.14014ZM106.85 12.1564H103.979L105.49 8.86728L106.85 12.1564Z" fill="white"/>
<path d="M113.833 12.1416L117.143 7.20044H115.465L113.107 10.835L110.765 7.20044H109.042L112.352 12.1867V15.4157H113.863L113.833 12.1416Z" fill="white"/>
<path d="M5.24357 11.4488L2.61029 14.0363L0 11.4488L2.61029 8.88426L5.24357 11.4488ZM11.632 5.17486L16.0283 9.61697L18.7531 7.02954L14.1736 2.58743L11.632 0L9.02157 2.58743L4.57943 7.02954L7.12114 9.61697L11.632 5.17486ZM20.6079 8.88426L18.0204 11.4488L20.6079 14.0363L23.2639 11.4488L20.6079 8.88426ZM11.632 17.7227L7.05243 13.3035L4.57943 15.891L9.159 20.3101L11.609 22.8975L14.2194 20.3101L18.7989 15.891L16.0283 13.3035L11.632 17.7227ZM11.632 14.0363L14.2651 11.4488L11.632 8.88426L9.02157 11.4488L11.632 14.0363Z" fill="black"/>
<path d="M37.1643 13.1323C37.1773 12.675 37.0354 12.2265 36.7613 11.8588C36.4872 11.4913 36.0969 11.2257 35.6528 11.1047C35.9911 10.945 36.2755 10.691 36.4713 10.3738C36.6672 10.0565 36.7661 9.68954 36.7562 9.31754C36.6957 7.96582 35.6226 7.13982 33.9147 7.13982H30V15.3851H34.0054C35.9098 15.3851 37.1643 14.6341 37.1643 13.1323ZM34.8518 9.60282C34.8518 10.2187 34.3379 10.489 33.5217 10.489H31.7986V8.73182H33.6275C34.4134 8.73182 34.8518 9.03211 34.8518 9.58782V9.60282ZM35.3203 12.907C35.3203 13.5228 34.8215 13.7931 34.0054 13.7931H31.7986V11.9908H33.96C34.8971 11.9908 35.3203 12.3213 35.3203 12.892V12.907ZM41.0487 15.3851V7.13982H39.2048V15.3851H41.0487ZM51.0092 15.3851V7.13982H49.1804V12.2161L45.2204 7.13982H43.5124V15.3851H45.3412V10.1435L49.4222 15.4001H51.0092V15.3851ZM61.2719 15.3851L57.6595 7.07968H55.9517L52.3392 15.3851H54.1832L54.9692 13.5378H58.5211L59.3071 15.3851H61.2719ZM57.9014 11.9308H55.6947L56.8132 9.25739L57.9014 11.9308ZM70.0988 15.3851V7.13982H68.2699V12.2161L64.3099 7.13982H62.6021V15.3851H64.4309V10.1435L68.5118 15.4001H70.0988V15.3851ZM79.6814 14.0634L78.5025 12.892C78.2207 13.194 77.8792 13.4351 77.4997 13.6005C77.1201 13.7658 76.7102 13.8518 76.2958 13.8531C75.9605 13.8537 75.6287 13.7861 75.3205 13.6548C75.0124 13.5234 74.7344 13.3308 74.5038 13.0891C74.2731 12.8473 74.0947 12.5611 73.9791 12.2484C73.8637 11.9355 73.8137 11.6027 73.8321 11.27C73.8158 10.941 73.8665 10.6123 73.9811 10.3031C74.0957 9.99411 74.2718 9.71125 74.4991 9.47154C74.7262 9.23168 74.9998 9.03997 75.3034 8.90768C75.6068 8.77539 75.9341 8.70539 76.2655 8.70168C77.0728 8.72182 77.8414 9.04996 78.4118 9.61782L79.5908 8.28125C79.1619 7.85111 78.6472 7.51539 78.0797 7.29539C77.5121 7.07554 76.9044 6.97654 76.2958 7.00468C75.7221 6.98639 75.1507 7.08354 74.6158 7.29011C74.0808 7.49668 73.5934 7.8084 73.1827 8.20668C72.7719 8.60497 72.4464 9.08168 72.2255 9.60811C72.0047 10.1344 71.8931 10.6997 71.8975 11.27C71.8912 11.8337 71.9991 12.3928 72.2148 12.9143C72.4304 13.4357 72.7492 13.9087 73.1525 14.3051C73.5558 14.7017 74.0352 15.0135 74.5622 15.2223C75.0892 15.4311 75.6531 15.5324 76.2202 15.5203C76.8697 15.5467 77.5168 15.4297 78.1154 15.1778C78.7138 14.9258 79.2487 14.5453 79.6814 14.0634ZM87.5561 15.3851V13.7631H83.0218V12.036H86.9818V10.4138H83.0067V8.73182H87.5409V7.10982H81.1929V15.3551H87.5864L87.5561 15.3851Z" fill="black"/>
</svg>
