<svg width="19" height="19" viewBox="0 0 19 19" fill="none" xmlns="http://www.w3.org/2000/svg">
<path d="M18.2137 10.9408C18.5562 10.4117 18.75 9.84727 18.75 9.16494C18.75 7.59666 17.2962 6.11567 15.3977 6.11567H13.9727C14.1648 5.65925 14.3184 5.11338 14.3184 4.45742C14.3184 1.86373 12.8461 0.72583 10.5969 0.72583C8.19035 0.72583 8.32762 4.10835 7.79375 4.59531C6.9052 5.4058 5.85566 6.96286 5.10781 7.56691H1.25C0.559648 7.56691 0 8.07739 0 8.70709V17.2584C0 17.8881 0.559648 18.3986 1.25 18.3986H3.75C4.33176 18.3986 4.82062 18.0361 4.96008 17.5453C6.69871 17.5809 7.89211 18.9683 11.9055 18.9683C12.1875 18.9683 12.5 18.9687 12.7734 18.9687C15.7858 18.9687 17.1479 17.564 17.1852 15.572C17.7054 14.9155 17.9781 14.0356 17.8625 13.1851C18.2474 12.5277 18.3962 11.7477 18.2137 10.9408ZM15.8016 12.8588C16.2922 13.6116 15.8508 14.6193 15.257 14.91C15.5578 16.6481 14.5692 17.2581 13.182 17.2581H11.7047C8.90629 17.2581 7.09418 15.9105 5 15.9105V9.27718H5.42656C6.53438 9.27718 8.08203 6.75132 9.11953 5.80462C10.2273 4.79413 9.8582 3.10987 10.5969 2.4361C12.4434 2.4361 12.4434 3.6112 12.4434 4.45742C12.4434 5.85308 11.3355 6.47839 11.3355 7.82594H15.3977C16.2223 7.82594 16.8715 8.49972 16.875 9.17349C16.8785 9.84691 16.3742 10.5207 16.0051 10.5207C16.532 11.0393 16.6446 12.1325 15.8016 12.8588ZM3.4375 16.1183C3.4375 16.5905 3.01777 16.9734 2.5 16.9734C1.98223 16.9734 1.5625 16.5905 1.5625 16.1183C1.5625 15.646 1.98223 15.2631 2.5 15.2631C3.01777 15.2631 3.4375 15.646 3.4375 16.1183Z" fill="black"/>
</svg>
