<svg width="25" height="15" viewBox="0 0 25 15" fill="none" xmlns="http://www.w3.org/2000/svg">
<path d="M23.418 1.82031C23.0742 3.28125 19.9805 7.66406 19.9805 7.66406C19.7227 8.09375 19.5938 8.30859 19.9805 8.78125C20.1523 8.99609 23.375 12.0898 23.8477 13.5508C24.0625 14.2812 23.7188 14.625 22.9883 14.625H20.4531C19.5078 14.625 19.207 13.8945 17.4883 12.1758C15.9844 10.7148 15.3398 10.5 14.9531 10.5C14.1797 10.5 14.3086 10.8008 14.3086 13.6797C14.3086 14.2812 14.0938 14.625 12.5039 14.625C9.83984 14.625 6.875 13.0352 4.76953 10.0273C1.63281 5.60156 0.773438 2.29297 0.773438 1.60547C0.773438 1.21875 0.945312 0.875 1.63281 0.875H4.16797C4.8125 0.875 5.07031 1.17578 5.32812 1.86328C6.57422 5.47266 8.63672 8.65234 9.49609 8.65234C9.83984 8.65234 9.96875 8.48047 9.96875 7.66406V3.92578C9.88281 2.20703 8.98047 2.07812 8.98047 1.47656C8.98047 1.17578 9.19531 0.875 9.625 0.875H13.5781C14.1367 0.875 14.3086 1.17578 14.3086 1.82031V6.84766C14.3086 7.36328 14.5664 7.57812 14.6953 7.57812C15.0391 7.57812 15.2969 7.36328 15.8984 6.80469C17.7031 4.74219 18.9922 1.60547 18.9922 1.60547C19.1641 1.21875 19.4648 0.875 20.1094 0.875H22.6445C23.418 0.875 23.5469 1.30469 23.418 1.82031Z" fill="black"/>
</svg>
